<?xml version="1.0" standalone="no"?>
<!DOCTYPE svg PUBLIC "-//W3C//DTD SVG 20010904//EN"
 "http://www.w3.org/TR/2001/REC-SVG-20010904/DTD/svg10.dtd">
<svg version="1.0" xmlns="http://www.w3.org/2000/svg"
 width="500.000000pt" height="500.000000pt" viewBox="0 0 500.000000 500.000000"
 preserveAspectRatio="xMidYMid meet">

<g transform="translate(0.000000,500.000000) scale(0.100000,-0.100000)"
fill="#000000" stroke="none">
<path d="M0 2500 l0 -2500 2500 0 2500 0 0 2500 0 2500 -2500 0 -2500 0 0
-2500z m3810 815 l0 -185 255 0 255 0 0 -95 0 -95 -255 0 -255 0 0 -532 c0
-615 0 -617 79 -699 34 -35 60 -51 100 -63 102 -30 223 -15 318 40 l43 25 40
-80 40 -80 -28 -19 c-90 -64 -193 -92 -337 -92 -245 0 -391 99 -461 310 -16
50 -18 107 -22 623 l-3 567 -150 0 -149 0 0 95 0 95 150 0 150 0 0 185 0 185
115 0 115 0 0 -185z m-2937 -897 c144 -389 264 -705 267 -702 3 3 124 321 270
707 l266 702 99 3 100 2 265 -706 c145 -388 267 -707 270 -709 3 -2 124 316
270 706 l265 709 103 0 c79 0 103 -3 99 -12 -2 -7 -145 -385 -317 -841 l-313
-827 -107 0 -107 0 -264 685 c-145 377 -266 685 -269 685 -3 0 -123 -307 -267
-683 l-261 -682 -109 -3 -108 -2 -313 832 c-172 458 -312 837 -312 841 0 4 48
6 106 5 l106 -3 261 -707z"/>
</g>
</svg>
